<svg width="900" height="1100" viewBox="0 0 900 1100" fill="none" xmlns="http://www.w3.org/2000/svg">
  <rect width="900" height="1100" fill="#F0E5D8"/>
  <ellipse cx="450" cy="1000" rx="214" ry="70" fill="#BD8F6F"/>
  <path d="M346 794C346 714 376 644 420 602C438 584 438 522 438 420C438 374 443 340 450 320C457 340 462 374 462 420C462 522 462 584 480 602C524 644 554 714 554 794C554 864 508 918 450 918C392 918 346 864 346 794Z" fill="#F8F1E8"/>
  <path d="M378 782C378 724 401 672 433 640C446 627 446 555 446 465C446 424 448 398 450 385C452 398 454 424 454 465C454 555 454 627 467 640C499 672 522 724 522 782C522 835 491 874 450 874C409 874 378 835 378 782Z" fill="#DDC5AD"/>
</svg>
