<svg width="900" height="1100" viewBox="0 0 900 1100" fill="none" xmlns="http://www.w3.org/2000/svg">
  <rect width="900" height="1100" fill="#EFE4D7"/>
  <ellipse cx="450" cy="998" rx="214" ry="70" fill="#B68565"/>
  <path d="M348 792C348 728 366 676 388 638C410 600 428 526 428 412C428 326 449 270 450 270C451 270 472 326 472 412C472 526 490 600 512 638C534 676 552 728 552 792C552 860 506 912 450 912C394 912 348 860 348 792Z" fill="#D6BEA7"/>
  <path d="M390 778C390 724 404 680 421 648C438 616 450 537 450 432C450 351 450 315 450 315C450 315 450 351 450 432C450 537 462 616 479 648C496 680 510 724 510 778C510 829 483 864 450 864C417 864 390 829 390 778Z" fill="#F8F1E8"/>
  <rect x="428" y="182" width="44" height="118" rx="22" fill="#7F563C"/>
</svg>
