<svg width="1200" height="1400" viewBox="0 0 1200 1400" fill="none" xmlns="http://www.w3.org/2000/svg">
  <!-- Replace with founder imagery or studio portrait later. -->
  <rect width="1200" height="1400" fill="#E8DDD0"/>
  <ellipse cx="874" cy="258" rx="212" ry="176" fill="#F6EFE7" fill-opacity="0.7"/>
  <ellipse cx="600" cy="1150" rx="360" ry="150" fill="#B48B6A"/>
  <path d="M393 1058C393 867 486 664 601 664C716 664 809 867 809 1058H393Z" fill="#8B603F"/>
  <rect x="468" y="422" width="264" height="330" rx="132" fill="#F4E7DA"/>
  <path d="M474 554C474 451 533 370 603 370C673 370 732 451 732 554V622H474V554Z" fill="#5B4637"/>
  <ellipse cx="603" cy="535" rx="110" ry="124" fill="#D4B69B"/>
  <ellipse cx="558" cy="525" rx="12" ry="16" fill="#4A352A"/>
  <ellipse cx="647" cy="525" rx="12" ry="16" fill="#4A352A"/>
  <path d="M560 611C586 631 617 631 645 611" stroke="#85583D" stroke-width="12" stroke-linecap="round"/>
  <path d="M486 640C523 703 680 709 720 640" stroke="#C9AD93" stroke-width="28" stroke-linecap="round"/>
  <rect x="282" y="1110" width="640" height="98" rx="49" fill="#6A7360" fill-opacity="0.78"/>
  <circle cx="880" cy="910" r="84" fill="#F2E7D9"/>
  <path d="M843 937C843 888 862 851 880 851C898 851 917 888 917 937H843Z" fill="#9A6544"/>
</svg>
