<svg width="1600" height="1100" viewBox="0 0 1600 1100" fill="none" xmlns="http://www.w3.org/2000/svg">
  <!-- Replace with final hero photography when available. -->
  <rect width="1600" height="1100" fill="#C8B19B"/>
  <rect width="1600" height="1100" fill="url(#bg)"/>
  <ellipse cx="1250" cy="210" rx="300" ry="220" fill="#E9DDD0" fill-opacity="0.55"/>
  <ellipse cx="310" cy="870" rx="380" ry="250" fill="#A56E4B" fill-opacity="0.28"/>
  <rect x="130" y="700" width="760" height="240" rx="120" fill="#A17755"/>
  <ellipse cx="500" cy="630" rx="245" ry="80" fill="#E8DDD0"/>
  <ellipse cx="500" cy="652" rx="218" ry="64" fill="#D1BAA3"/>
  <path d="M268 629C292 517 379 461 498 461C617 461 704 517 728 629H268Z" fill="#A56E4B"/>
  <path d="M304 628C326 544 394 504 498 504C602 504 670 544 692 628H304Z" fill="#D9C4AE"/>
  <ellipse cx="1024" cy="615" rx="114" ry="155" fill="#EFE4D6"/>
  <ellipse cx="1024" cy="462" rx="96" ry="68" fill="#9C6543"/>
  <ellipse cx="1024" cy="450" rx="80" ry="49" fill="#C9B49D"/>
  <rect x="922" y="645" width="210" height="95" rx="47.5" fill="#6B7461" fill-opacity="0.82"/>
  <ellipse cx="1220" cy="735" rx="115" ry="62" fill="#87573A"/>
  <ellipse cx="1220" cy="752" rx="97" ry="42" fill="#D5C0AA"/>
  <rect x="0" y="872" width="1600" height="228" fill="url(#table)"/>
  <defs>
    <linearGradient id="bg" x1="278" y1="122" x2="1360" y2="1072" gradientUnits="userSpaceOnUse">
      <stop stop-color="#E8DED2"/>
      <stop offset="1" stop-color="#AE8A70"/>
    </linearGradient>
    <linearGradient id="table" x1="800" y1="872" x2="800" y2="1100" gradientUnits="userSpaceOnUse">
      <stop stop-color="#7D5A43"/>
      <stop offset="1" stop-color="#644833"/>
    </linearGradient>
  </defs>
</svg>
