<svg width="1200" height="1400" viewBox="0 0 1200 1400" fill="none" xmlns="http://www.w3.org/2000/svg">
  <!-- Replace with refined product detail photography later. -->
  <rect width="1200" height="1400" fill="#E6D7C8"/>
  <ellipse cx="942" cy="226" rx="232" ry="182" fill="#F5EEE6" fill-opacity="0.65"/>
  <rect x="140" y="1030" width="920" height="220" rx="110" fill="#B28562"/>
  <ellipse cx="372" cy="850" rx="178" ry="220" fill="#987052"/>
  <ellipse cx="372" cy="620" rx="144" ry="92" fill="#F4EADD"/>
  <ellipse cx="372" cy="620" rx="120" ry="72" fill="#C9AD93"/>
  <ellipse cx="770" cy="738" rx="190" ry="70" fill="#F8F3EC"/>
  <ellipse cx="770" cy="756" rx="165" ry="52" fill="#DCC7B2"/>
  <path d="M558 736C584 611 663 551 770 551C877 551 956 611 982 736H558Z" fill="#895B3D"/>
  <path d="M595 735C618 643 681 608 770 608C859 608 922 643 945 735H595Z" fill="#DEC8B3"/>
  <ellipse cx="832" cy="420" rx="78" ry="122" fill="#F1E7DB"/>
  <ellipse cx="832" cy="300" rx="63" ry="46" fill="#85563B"/>
  <ellipse cx="832" cy="294" rx="48" ry="30" fill="#D0B69E"/>
</svg>
