<svg width="1600" height="1100" viewBox="0 0 1600 1100" fill="none" xmlns="http://www.w3.org/2000/svg">
  <!-- Replace with final catalog photography later. -->
  <rect width="1600" height="1100" fill="#EFE4D6"/>
  <ellipse cx="1286" cy="226" rx="252" ry="166" fill="#FAF4ED"/>
  <rect y="862" width="1600" height="238" fill="#866148"/>
  <ellipse cx="314" cy="784" rx="150" ry="58" fill="#F7F1E9"/>
  <ellipse cx="314" cy="801" rx="126" ry="40" fill="#D7C1AA"/>
  <path d="M164 782C186 684 243 630 314 630C385 630 442 684 464 782H164Z" fill="#A06946"/>
  <path d="M191 781C211 711 257 674 314 674C371 674 417 711 437 781H191Z" fill="#DDC8B2"/>
  <ellipse cx="728" cy="712" rx="95" ry="142" fill="#F8F0E8"/>
  <ellipse cx="728" cy="573" rx="74" ry="52" fill="#916145"/>
  <ellipse cx="728" cy="566" rx="58" ry="36" fill="#D3B79E"/>
  <ellipse cx="1160" cy="762" rx="182" ry="66" fill="#F7F1E8"/>
  <ellipse cx="1160" cy="778" rx="160" ry="48" fill="#D6C0A8"/>
  <path d="M948 761C973 644 1057 588 1160 588C1263 588 1347 644 1372 761H948Z" fill="#84563A"/>
  <path d="M986 760C1008 678 1075 641 1160 641C1245 641 1312 678 1334 760H986Z" fill="#E0CCB6"/>
</svg>
